<?xml version="1.0" encoding="UTF-8"?>
<svg width="37px" height="29px" viewBox="0 0 37 29" version="1.1" xmlns="http://www.w3.org/2000/svg" xmlns:xlink="http://www.w3.org/1999/xlink">
    <!-- Generator: Sketch 48.2 (47327) - http://www.bohemiancoding.com/sketch -->
    <title>learning</title>
    <desc>Created with Sketch.</desc>
    <defs></defs>
    <g id="iPhone-8" stroke="none" stroke-width="1" fill="none" fill-rule="evenodd" transform="translate(-169.000000, -54.000000)">
        <path d="M202.736922,75.9798374 C203.247968,76.381502 203.565092,77.0043172 203.562092,77.7238 C203.556842,78.9828 201.285557,82.1688 201.285557,82.1688 C201.285557,82.1688 199.039842,78.9828 199.045092,77.7238 C199.048094,77.003874 199.370808,76.3807348 199.885944,75.9790954 C199.834784,75.8293391 199.807361,75.6687997 199.808058,75.5018 C199.810346,74.9528997 200.115089,74.4740713 200.566011,74.2179436 L200.605835,64.6674522 L198.342656,65.6456797 L198.314164,72.4786298 C198.314747,72.4985219 198.314998,72.5184456 198.314914,72.5384 C198.304677,74.9934 193.24038,76.9834 187.00438,76.9834 C180.76838,76.9834 175.720677,74.9934 175.730914,72.5384 L175.759657,65.6452466 L169.448573,62.9075 C168.847807,62.6115 168.851206,61.7965 169.45444,61.5005 L186.422021,54.1665 C186.874947,53.9445 187.325947,53.9445 187.777021,54.1665 L204.68344,61.5005 C205.284206,61.7965 205.280807,62.6115 204.677573,62.9075 L202.113552,64.0157624 L202.071012,74.2176598 C202.520374,74.4737175 202.821347,74.9526969 202.819058,75.5018 C202.81836,75.6690756 202.789505,75.8298694 202.736922,75.9798374 Z" id="learning" fill="#1B263E"></path>
    </g>
</svg>