<?xml version="1.0" encoding="UTF-8"?>
<svg width="29px" height="30px" viewBox="0 0 29 30" version="1.1" xmlns="http://www.w3.org/2000/svg" xmlns:xlink="http://www.w3.org/1999/xlink">
    <!-- Generator: Sketch 48.2 (47327) - http://www.bohemiancoding.com/sketch -->
    <title>phrases</title>
    <desc>Created with Sketch.</desc>
    <defs></defs>
    <g id="iPhone-8" stroke="none" stroke-width="1" fill="none" fill-rule="evenodd" transform="translate(-39.000000, -56.000000)">
        <path d="M67.7100248,60.445 C67.7202199,58 65.6965595,56 63.2115595,56 L43.6395595,56 C41.1555595,56 39.1152199,58 39.1050248,60.445 L39,85.632 L43.5355348,81.187 L63.1065348,81.187 C65.5915348,81.187 67.6318744,79.187 67.6420654,76.743 L67.7100248,60.445 Z M49.1526958,68.3342025 C49.1468553,69.7156351 48.1215462,70.8345732 46.8606355,70.8345732 C45.6003908,70.8345732 44.582798,69.7156351 44.5879724,68.3342025 C44.593144,66.9535114 45.6191192,65.8345732 46.8793639,65.8345732 C48.1402747,65.8345732 49.1572014,66.9535114 49.1526958,68.3342025 Z M55.7456425,68.3342025 C55.7404681,69.7156351 54.7144929,70.8345732 53.4542482,70.8345732 C52.1933374,70.8345732 51.1757446,69.7156351 51.180919,68.3342025 C51.1860907,66.9535114 52.2120659,65.8345732 53.4729766,65.8345732 C54.7332213,65.8345732 55.7508141,66.9535114 55.7456425,68.3342025 Z M62.3386452,68.3342025 C62.3334708,69.7156351 61.3074956,70.8345732 60.0472509,70.8345732 C58.7870062,70.8345732 57.7694134,69.7156351 57.7745879,68.3342025 C57.7797595,66.9535114 58.8057347,65.8345732 60.0659794,65.8345732 C61.3262241,65.8345732 62.3438169,66.9535114 62.3386452,68.3342025 Z" id="phrases" fill="#1B263E"></path>
    </g>
</svg>